<svg width="24" height="24" viewBox="0 0 24 24" fill="none" xmlns="http://www.w3.org/2000/svg">
<g clip-path="url(#clip0_472_8986)">
<path d="M20.3178 4.36056C18.7615 3.64636 17.1194 3.13662 15.4323 2.84406C15.417 2.84149 15.4013 2.84371 15.3873 2.85042C15.3733 2.85714 15.3618 2.86802 15.3543 2.88156C15.1428 3.25656 14.9088 3.74706 14.7453 4.13106C12.9267 3.85507 11.0768 3.85507 9.25825 4.13106C9.07587 3.70329 8.86954 3.28613 8.64025 2.88156C8.63256 2.86816 8.62099 2.85741 8.60707 2.85072C8.59314 2.84403 8.57752 2.8417 8.56225 2.84406C6.87475 3.13506 5.23225 3.64506 3.67675 4.36056C3.66344 4.36564 3.65231 4.37518 3.64525 4.38756C0.534253 9.03606 -0.319247 13.5706 0.0992533 18.0481C0.100753 18.0691 0.114253 18.0901 0.130753 18.1036C1.94234 19.4455 3.96864 20.47 6.12325 21.1336C6.13847 21.1384 6.15481 21.1382 6.16992 21.1331C6.18502 21.1279 6.1981 21.1181 6.20725 21.1051C6.66925 20.4751 7.08025 19.8106 7.43425 19.1116C7.44163 19.0972 7.44416 19.0808 7.44145 19.0648C7.43875 19.0489 7.43096 19.0342 7.41925 19.0231C7.4115 19.0157 7.4023 19.0101 7.39225 19.0066C6.74599 18.7582 6.1201 18.4598 5.52025 18.1141C5.5035 18.1046 5.49104 18.089 5.48545 18.0706C5.47987 18.0521 5.48159 18.0323 5.49025 18.0151C5.49536 18.0039 5.50307 17.9941 5.51275 17.9866C5.63875 17.8921 5.76475 17.7931 5.88475 17.6941C5.89535 17.6855 5.90807 17.6801 5.92155 17.6782C5.93502 17.6764 5.94875 17.6782 5.96125 17.6836C9.88975 19.4776 14.1423 19.4776 18.0228 17.6836C18.0357 17.6779 18.05 17.676 18.064 17.6778C18.078 17.6797 18.0912 17.6853 18.1023 17.6941C18.2223 17.7931 18.3483 17.8921 18.4743 17.9866C18.4845 17.994 18.4927 18.0039 18.4981 18.0153C18.5036 18.0267 18.5061 18.0393 18.5055 18.0519C18.5049 18.0646 18.5012 18.0768 18.4947 18.0877C18.4882 18.0985 18.4791 18.1076 18.4683 18.1141C17.8698 18.4629 17.2431 18.761 16.5948 19.0051C16.5844 19.0088 16.575 19.0148 16.5672 19.0226C16.5595 19.0303 16.5535 19.0397 16.5498 19.0501C16.5463 19.0601 16.5449 19.0707 16.5457 19.0813C16.5464 19.0918 16.5494 19.1022 16.5543 19.1116C16.9143 19.8091 17.3268 20.4751 17.7798 21.1051C17.7889 21.1181 17.802 21.1279 17.8171 21.1331C17.8322 21.1382 17.8485 21.1384 17.8638 21.1336C20.022 20.4721 22.0516 19.4474 23.8653 18.1036C23.8743 18.0973 23.8819 18.089 23.8873 18.0794C23.8928 18.0698 23.896 18.0591 23.8968 18.0481C24.3978 12.8716 23.0583 8.37456 20.3478 4.38906C20.345 4.38248 20.3409 4.37654 20.3358 4.37163C20.3306 4.36672 20.3245 4.36295 20.3178 4.36056V4.36056ZM8.02075 15.3211C6.83725 15.3211 5.86375 14.2351 5.86375 12.9031C5.86375 11.5696 6.81925 10.4836 8.02075 10.4836C9.23125 10.4836 10.1958 11.5786 10.1778 12.9031C10.1778 14.2351 9.22225 15.3211 8.02075 15.3211ZM15.9948 15.3211C14.8128 15.3211 13.8378 14.2351 13.8378 12.9031C13.8378 11.5696 14.7933 10.4836 15.9948 10.4836C17.2053 10.4836 18.1713 11.5786 18.1518 12.9031C18.1518 14.2351 17.2053 15.3211 15.9948 15.3211Z" fill="#F4F4F4"/>
</g>
<defs>
<clipPath id="clip0_472_8986">
<rect width="24" height="24" fill="white"/>
</clipPath>
</defs>
</svg>
