<svg width="256" height="75" viewBox="0 0 256 75" fill="none" xmlns="http://www.w3.org/2000/svg">
<path fill-rule="evenodd" clip-rule="evenodd" d="M65.3776 0.733215H99.0468L108.579 74.7332H93.8155L90.9788 60.4343H73.805L71.4216 74.7332H55.7426L65.3776 0.733215ZM75.1427 46.9539L78.6847 15.2443H84.8595L89.2589 45.6162L75.1427 46.9539Z" fill="#F4F4F4"/>
<path d="M188.538 74.7332L191.791 0.733229H176.805L171.443 60.1962H169.805L161.073 15.1856H144.242L134.768 60.1962H133.602L125.364 0.733215H109.853L117.299 74.7332H145.267L152.391 45.9234L159.779 74.7332H188.538Z" fill="#F4F4F4"/>
<path d="M225.007 0.733215H200.016L197.897 74.7332H215.524V27.8103H217.631L225.709 74.7332H254.117L255.28 0.733215H239.562V1.0128L237.937 60.1927H236.56L225.007 0.733215Z" fill="#F4F4F4"/>
<path fill-rule="evenodd" clip-rule="evenodd" d="M1.93359 74.7332L0.773438 0.733215H36.8054L53.3712 11.5768L49.5376 64.5155L38.7149 74.7332H1.93359ZM18.1115 60.1961L16.7404 15.2042L32.183 14.3228L38.776 19.153L35.8054 56.2541L31.1092 60.1961H18.1115Z" fill="#F4F4F4"/>
</svg>
