<svg width="164" height="23" viewBox="0 0 164 23" fill="none" xmlns="http://www.w3.org/2000/svg">
<path d="M17.531 0.8078C19.3692 0.8078 20.9923 1.01313 22.4003 1.4238C23.8279 1.81491 25.0501 2.36247 26.067 3.06647C27.0839 3.77047 27.915 4.5918 28.5603 5.53047C29.2057 6.44958 29.6848 7.43713 29.9977 8.49313C30.3106 9.54913 30.467 10.6247 30.467 11.7198C30.467 13.1082 30.2128 14.4674 29.7043 15.7971C29.2154 17.1074 28.443 18.2905 27.387 19.3465C26.3506 20.4025 25.011 21.2434 23.3683 21.8691C21.7452 22.4949 19.7995 22.8078 17.531 22.8078H0.0483398C0.0483398 21.5562 0.0483398 20.3145 0.0483398 19.0825C0.0483398 17.8309 0.0483398 16.5891 0.0483398 15.3571C0.0483398 14.1056 0.0483398 12.8638 0.0483398 11.6318C0.0483398 10.3802 0.0483398 9.12869 0.0483398 7.87714C0.0483398 6.7038 0.0483398 5.53047 0.0483398 4.35713C0.0483398 3.16425 0.0483398 1.98113 0.0483398 0.8078H17.531ZM15.1843 9.2558H11.6937C11.6937 9.2558 11.6839 9.2558 11.6643 9.2558C11.6643 9.2558 11.6643 9.26558 11.6643 9.28513C11.6643 9.28513 11.6643 9.29491 11.6643 9.31447V14.3011C11.6643 14.3207 11.6643 14.3402 11.6643 14.3598C11.6839 14.3598 11.6937 14.3598 11.6937 14.3598H15.243C15.6732 14.3598 16.0546 14.2914 16.387 14.1545C16.739 14.0176 17.0323 13.8318 17.267 13.5971C17.5017 13.3625 17.6777 13.0887 17.795 12.7758C17.9319 12.4629 18.0003 12.1402 18.0003 11.8078C18.0003 11.3385 17.883 10.9082 17.6483 10.5171C17.4332 10.126 17.1203 9.82291 16.7097 9.6078C16.299 9.37313 15.7906 9.2558 15.1843 9.2558Z" fill="#FFFEF5"/>
<path d="M31.0718 22.8078V14.5651H41.7784V22.8078H31.0718Z" fill="#FFFEF5"/>
<path d="M67.3945 0.8078C67.7465 2.02025 68.0887 3.24247 68.4211 4.47447C68.7731 5.68691 69.1153 6.90914 69.4478 8.14114C69.7998 9.35358 70.1518 10.5758 70.5038 11.8078C70.8558 13.0202 71.198 14.2425 71.5305 15.4745C71.8825 16.6869 72.2247 17.9091 72.5571 19.1411C72.9091 20.3536 73.2611 21.5758 73.6131 22.8078H60.5305L60.0318 19.9331C59.9536 19.9331 59.8851 19.9331 59.8265 19.9331C59.7678 19.9331 59.6993 19.9331 59.6211 19.9331H56.3945C56.3358 19.9331 56.2771 19.9331 56.2185 19.9331C56.1598 19.9331 56.1011 19.9331 56.0425 19.9331L55.5438 22.8078H43.0185C43.3705 21.5758 43.7127 20.3536 44.0451 19.1411C44.3971 17.9091 44.7393 16.6869 45.0718 15.4745C45.4238 14.2425 45.766 13.0202 46.0985 11.8078C46.4505 10.5758 46.7927 9.35358 47.1251 8.14114C47.4771 6.90914 47.8193 5.68691 48.1518 4.47447C48.5038 3.24247 48.846 2.02025 49.1785 0.8078H67.3945ZM56.3945 17.8505C56.3945 17.87 56.3945 17.8798 56.3945 17.8798C56.3945 17.8798 56.4042 17.8798 56.4238 17.8798H59.6505C59.67 17.8798 59.6798 17.8798 59.6798 17.8798C59.6798 17.8602 59.6798 17.8505 59.6798 17.8505C59.6798 17.8505 59.6407 17.6158 59.5625 17.1465C59.4842 16.6576 59.3767 16.0514 59.2398 15.3278C59.1225 14.5847 58.9953 13.8025 58.8585 12.9811C58.7216 12.1402 58.5945 11.3482 58.4771 10.6051C58.3598 9.86202 58.2522 9.2558 58.1545 8.78647C58.0762 8.31713 58.0371 8.08247 58.0371 8.08247C58.0371 8.08247 58.0273 8.08247 58.0078 8.08247C58.0078 8.08247 57.9687 8.31713 57.8905 8.78647C57.8122 9.2558 57.7047 9.86202 57.5678 10.6051C57.4505 11.3482 57.3233 12.1402 57.1865 12.9811C57.0496 13.8025 56.9225 14.5847 56.8051 15.3278C56.6878 16.0514 56.59 16.6576 56.5118 17.1465C56.4336 17.6158 56.3945 17.8505 56.3945 17.8505Z" fill="#FFFEF5"/>
<path d="M74.8415 22.8078V14.5651H85.5481V22.8078H74.8415Z" fill="#FFFEF5"/>
<path d="M112.331 0.8078H124.211C123.781 2.64602 123.35 4.48425 122.92 6.32247C122.509 8.14113 122.089 9.96958 121.659 11.8078C121.229 13.646 120.798 15.4842 120.368 17.3225C119.957 19.1411 119.547 20.9696 119.136 22.8078H105.496L103.736 11.7785C103.736 11.7589 103.726 11.7491 103.707 11.7491C103.707 11.7296 103.707 11.7198 103.707 11.7198C103.707 11.7198 103.697 11.7198 103.677 11.7198C103.677 11.7198 103.668 11.7296 103.648 11.7491C103.648 11.7491 103.648 11.7589 103.648 11.7785L101.917 22.8078H89.1868C88.8348 21.3411 88.4828 19.8745 88.1308 18.4078C87.7788 16.9411 87.417 15.4745 87.0455 14.0078C86.6935 12.5411 86.3415 11.0745 85.9895 9.6078C85.6375 8.14113 85.2757 6.67447 84.9042 5.2078C84.5522 3.74113 84.2002 2.27447 83.8482 0.8078H96.3442C96.5006 1.80513 96.6473 2.81225 96.7842 3.82914C96.9406 4.82647 97.0873 5.8238 97.2242 6.82113C97.3806 7.81847 97.5371 8.82558 97.6935 9.84247C97.8499 10.8398 97.9966 11.8371 98.1335 12.8345C98.1335 12.8345 98.1433 12.8345 98.1628 12.8345C98.1824 12.8345 98.2019 12.8345 98.2215 12.8345C98.241 12.8345 98.2508 12.8345 98.2508 12.8345C98.2704 12.8345 98.2802 12.8345 98.2802 12.8345L99.9228 0.8078H108.752L110.483 12.8345C110.502 12.8345 110.512 12.8345 110.512 12.8345C110.532 12.8345 110.541 12.8345 110.541 12.8345C110.835 10.8202 111.128 8.8158 111.421 6.82113C111.734 4.82647 112.037 2.82202 112.331 0.8078Z" fill="#FFFEF5"/>
<path d="M122.497 22.8078V14.5651H133.203V22.8078H122.497Z" fill="#FFFEF5"/>
<path d="M152.307 0.8078H163.601C163.601 1.53136 163.601 2.26469 163.601 3.0078C163.601 3.73136 163.601 4.46469 163.601 5.2078C163.601 5.93136 163.601 6.66469 163.601 7.4078C163.601 8.13136 163.601 8.86469 163.601 9.6078C163.601 10.3314 163.601 11.0647 163.601 11.8078C163.601 13.646 163.601 15.4842 163.601 17.3225C163.601 19.1411 163.601 20.9696 163.601 22.8078H150.019L146.323 12.2478C146.323 12.2282 146.314 12.2185 146.294 12.2185C146.294 12.2185 146.284 12.2185 146.265 12.2185C146.265 12.2185 146.265 12.2282 146.265 12.2478C146.265 13.9687 146.265 15.7287 146.265 17.5278C146.265 19.3269 146.265 21.0869 146.265 22.8078H134.971C134.971 21.3411 134.971 19.8745 134.971 18.4078C134.971 16.9411 134.971 15.4745 134.971 14.0078C134.971 12.5411 134.971 11.0745 134.971 9.6078C134.971 8.14113 134.971 6.67447 134.971 5.2078C134.971 3.74113 134.971 2.27447 134.971 0.8078H148.113L152.249 12.9811C152.268 12.9811 152.278 12.9811 152.278 12.9811C152.298 12.9811 152.307 12.9811 152.307 12.9811C152.307 12.9616 152.307 12.9518 152.307 12.9518V0.8078Z" fill="#FFFEF5"/>
</svg>