<svg width="24" height="24" viewBox="0 0 24 24" fill="none" xmlns="http://www.w3.org/2000/svg">
<path fill-rule="evenodd" clip-rule="evenodd" d="M17.359 3.21276C17.3421 3.31987 17.3333 3.42977 17.3333 3.54176C17.3333 4.67251 18.2288 5.58917 19.3333 5.58917C20.4379 5.58917 21.3333 4.67251 21.3333 3.54176C21.3333 2.411 20.4379 1.49434 19.3333 1.49434C18.8411 1.49434 18.3905 1.67635 18.0421 1.9782L12.8483 0.666748L10.9711 8.35353C8.47385 8.52175 6.22797 9.29594 4.53373 10.4648C4.0527 9.98181 3.39366 9.68399 2.66667 9.68399C1.19391 9.68399 0 10.9062 0 12.4139C0 13.4631 0.578211 14.3741 1.42623 14.8311C1.36496 15.1567 1.33333 15.4888 1.33333 15.8262C1.33333 19.9723 6.10896 23.3334 12 23.3334C17.891 23.3334 22.6667 19.9723 22.6667 15.8262C22.6667 15.4888 22.635 15.1567 22.5738 14.8311C23.4218 14.3741 24 13.4631 24 12.4139C24 10.9062 22.8061 9.68399 21.3333 9.68399C20.6063 9.68399 19.9473 9.98181 19.4663 10.4648C17.6205 9.19138 15.1199 8.38638 12.3529 8.32308L13.8184 2.32198L17.359 3.21276ZM7.33333 16.5087C8.4379 16.5087 9.33333 15.592 9.33333 14.4613C9.33333 13.3305 8.4379 12.4139 7.33333 12.4139C6.22876 12.4139 5.33333 13.3305 5.33333 14.4613C5.33333 15.592 6.22876 16.5087 7.33333 16.5087ZM16.6667 16.5087C17.7712 16.5087 18.6667 15.592 18.6667 14.4613C18.6667 13.3305 17.7712 12.4139 16.6667 12.4139C15.5621 12.4139 14.6667 13.3305 14.6667 14.4613C14.6667 15.592 15.5621 16.5087 16.6667 16.5087ZM7.70313 18.6707C7.39678 18.4616 6.98287 18.5464 6.77863 18.86C6.5744 19.1736 6.65718 19.5973 6.96353 19.8064C8.41431 20.7965 10.2072 21.2916 12 21.2916C13.7928 21.2916 15.5857 20.7965 17.0365 19.8064C17.3428 19.5973 17.4256 19.1736 17.2214 18.86C17.0171 18.5464 16.6032 18.4616 16.2969 18.6707C15.07 19.508 13.535 19.9267 12 19.9267C11.0897 19.9267 10.1794 19.7794 9.33333 19.485C8.75274 19.2829 8.20242 19.0115 7.70313 18.6707Z" fill="#F1F1F1"/>
</svg>
