<svg width="16" height="16" viewBox="0 0 16 16" fill="none" xmlns="http://www.w3.org/2000/svg">
<path d="M7.68929 0.284485C3.63571 0.284485 0.316369 3.40926 0 7.38164L4.13479 9.09206C4.485 8.85182 4.90795 8.71309 5.36474 8.71309C5.40534 8.71309 5.44594 8.71309 5.48655 8.71648L7.32555 6.05018C7.32555 6.03834 7.32555 6.02481 7.32555 6.01296C7.32555 4.40912 8.63163 3.10304 10.2355 3.10304C11.8393 3.10304 13.1454 4.40912 13.1454 6.01296C13.1454 7.6168 11.8393 8.92288 10.2355 8.92288C10.2135 8.92288 10.1915 8.92288 10.1695 8.92288L7.54718 10.794C7.54718 10.8279 7.54887 10.8634 7.54887 10.8972C7.54887 12.1018 6.56931 13.0814 5.36474 13.0814C4.30735 13.0814 3.42423 12.3268 3.2229 11.3269L0.265615 10.1021C1.18089 13.3402 4.15678 15.7155 7.68929 15.7155C11.951 15.7155 15.404 12.2608 15.404 8.00084C15.404 3.74086 11.9493 0.284485 7.68929 0.284485Z" fill="#EDF67D"/>
<path d="M4.83511 11.9919L3.8877 11.6011C4.05518 11.9513 4.34618 12.244 4.73191 12.4047C5.56597 12.7516 6.52692 12.3557 6.87544 11.5216C7.04293 11.1173 7.04462 10.6723 6.87713 10.268C6.71133 9.86364 6.39665 9.54727 5.99231 9.37978C5.59135 9.21229 5.16163 9.21906 4.78436 9.36117L5.76392 9.76552C6.37974 10.0227 6.67073 10.7282 6.41357 11.344C6.15811 11.9598 5.45093 12.2508 4.83511 11.9936V11.9919Z" fill="#EDF67D"/>
<path d="M12.1745 6.01127C12.1745 4.94204 11.3049 4.07245 10.2357 4.07245C9.16647 4.07245 8.29688 4.94204 8.29688 6.01127C8.29688 7.08049 9.16647 7.95008 10.2357 7.95008C11.3049 7.95008 12.1745 7.08049 12.1745 6.01127ZM8.78243 6.00788C8.78243 5.20427 9.43546 4.55123 10.2391 4.55123C11.0427 4.55123 11.6957 5.20258 11.6957 6.00788C11.6957 6.81319 11.0444 7.46453 10.2391 7.46453C9.43377 7.46453 8.78243 6.81319 8.78243 6.00788Z" fill="#EDF67D"/>
</svg>
