<svg width="24" height="24" viewBox="0 0 24 24" fill="none" xmlns="http://www.w3.org/2000/svg">
<g clip-path="url(#clip0_472_8981)">
<path fill-rule="evenodd" clip-rule="evenodd" d="M21.3765 4.05023C22.4092 4.328 23.2225 5.14646 23.4985 6.18582C24 8.06955 24 12 24 12C24 12 24 15.9302 23.4985 17.8141C23.2225 18.8535 22.4092 19.6719 21.3765 19.9498C19.505 20.4545 12 20.4545 12 20.4545C12 20.4545 4.49496 20.4545 2.62336 19.9498C1.59068 19.6719 0.777409 18.8535 0.501409 17.8141C0 15.9302 0 12 0 12C0 12 0 8.06955 0.501409 6.18582C0.777409 5.14646 1.59068 4.328 2.62336 4.05023C4.49496 3.54541 12 3.54541 12 3.54541C12 3.54541 19.505 3.54541 21.3765 4.05023ZM9.54541 8.43152V15.5685L15.8181 12.0002L9.54541 8.43152Z" fill="#F4F4F4"/>
</g>
<defs>
<clipPath id="clip0_472_8981">
<rect width="24" height="24" fill="white"/>
</clipPath>
</defs>
</svg>
